<svg xmlns="http://www.w3.org/2000/svg" width="55" height="42" viewBox="0 0 55 42"><g><g opacity="-1"><path fill="#0f7bff" d="M16.923 25.2H15.13c1.363 2.348 3.07 4.735 4.507 6.415a6.267 6.267 0 0 1-.719 8.878A6.342 6.342 0 0 1 14.808 42a6.342 6.342 0 0 1-4.826-2.209C8.313 37.854 0 29.4 0 18.9V8.4C0 3.76 3.789 0 8.462 0h8.461c4.673 0 8.462 3.761 8.462 8.4v8.4c0 4.639-3.79 8.4-8.462 8.4zm4.23-16.8c0-2.315-1.896-4.2-4.23-4.2H8.462c-2.33 0-4.231 1.885-4.231 4.2v10.5c0 8.11 6.346 15.218 8.428 17.555l.541.609c.55.64 1.244.736 1.608.736.35 0 .875-.088 1.372-.507a2.09 2.09 0 0 0 .231-2.96c-1.677-1.961-3.528-4.59-4.946-7.035a4.16 4.16 0 0 1 .005-4.2A4.225 4.225 0 0 1 15.13 21h1.793c2.334 0 4.23-1.885 4.23-4.2zm25.385 16.8h-1.793c1.364 2.348 3.07 4.735 4.507 6.415a6.267 6.267 0 0 1-.718 8.878A6.346 6.346 0 0 1 44.419 42a6.333 6.333 0 0 1-4.822-2.209C37.928 37.854 29.615 29.4 29.615 18.9V8.4c0-4.639 3.789-8.4 8.462-8.4h8.461C51.211 0 55 3.761 55 8.4v8.4c0 4.639-3.789 8.4-8.462 8.4zM50.77 8.4c0-2.315-1.896-4.2-4.23-4.2h-8.462c-2.334 0-4.23 1.885-4.23 4.2v10.5c0 8.117 6.345 15.225 8.432 17.558l.537.607c.55.638 1.24.735 1.603.735.355 0 .88-.088 1.376-.507a2.094 2.094 0 0 0 .235-2.96c-1.681-1.961-3.532-4.59-4.95-7.035a4.172 4.172 0 0 1 0-4.2A4.238 4.238 0 0 1 44.745 21h1.793c2.335 0 4.231-1.885 4.231-4.2z"/></g></g></svg>